<?xml version="1.0" encoding="utf-8"?>
<!-- Generator: Adobe Illustrator 25.2.0, SVG Export Plug-In . SVG Version: 6.00 Build 0)  -->
<svg version="1.1" id="Layer_1" xmlns="http://www.w3.org/2000/svg" xmlns:xlink="http://www.w3.org/1999/xlink" x="0px" y="0px"
	 viewBox="0 0 175.33 102.89" style="enable-background:new 0 0 175.33 102.89;" xml:space="preserve">
<style type="text/css">
	.st0{fill:#EAE9E8;}
</style>
<g>
	<g>
		<g>
			<line class="st0" x1="78.18" y1="16.73" x2="78.18" y2="85.94"/>
			<rect x="77.69" y="16.73" class="st0" width="0.98" height="69.21"/>
		</g>
		<g>
			<g>
				<polygon class="st0" points="91.51,25.65 97.63,25.65 97.63,23.62 91.51,23.62 91.51,18.98 98.69,18.98 98.69,16.95 
					88.98,16.95 88.98,32.13 91.51,32.13 				"/>
				<path class="st0" d="M108.58,32.35c1.86,0,3.38-0.61,4.54-1.83c1.16-1.22,1.75-2.76,1.75-4.61v-2.73c0-1.85-0.58-3.39-1.75-4.61
					c-1.17-1.22-2.68-1.83-4.54-1.83c-1.82,0-3.3,0.61-4.44,1.83c-1.14,1.22-1.7,2.76-1.7,4.61v2.73c0,1.86,0.57,3.39,1.71,4.61
					C105.29,31.74,106.76,32.35,108.58,32.35z M104.97,23.15c0-1.27,0.32-2.31,0.96-3.12c0.64-0.81,1.52-1.22,2.64-1.22
					c1.15,0,2.07,0.41,2.74,1.22c0.67,0.81,1.01,1.85,1.01,3.12v2.75c0,1.29-0.34,2.34-1.01,3.15c-0.67,0.81-1.59,1.22-2.75,1.22
					c-1.11,0-1.99-0.41-2.64-1.23c-0.65-0.82-0.97-1.86-0.97-3.14V23.15z"/>
				<path class="st0" d="M130.81,27.23l-0.02-0.06h-2.44c0,1.02-0.27,1.8-0.81,2.35c-0.54,0.54-1.33,0.81-2.36,0.81
					c-1.06,0-1.89-0.41-2.5-1.22c-0.61-0.82-0.92-1.85-0.92-3.11v-2.91c0-1.24,0.3-2.28,0.9-3.09s1.42-1.22,2.45-1.22
					c1.06,0,1.87,0.27,2.42,0.81c0.55,0.54,0.82,1.32,0.82,2.33h2.45l0.02-0.06c0.03-1.58-0.47-2.83-1.5-3.74
					c-1.03-0.91-2.43-1.37-4.22-1.37c-1.75,0-3.16,0.6-4.24,1.8c-1.08,1.2-1.63,2.72-1.63,4.57v2.89c0,1.86,0.55,3.38,1.65,4.57
					c1.1,1.19,2.53,1.79,4.3,1.79c1.74,0,3.12-0.47,4.14-1.41C130.34,29.99,130.83,28.76,130.81,27.23z"/>
				<path class="st0" d="M139.42,16.95l-5.3,15.18h2.62l1.17-3.55h5.38l1.16,3.55h2.62l-5.23-15.18H139.42z M138.6,26.47l1.98-5.98
					h0.06l1.95,5.98H138.6z"/>
				<polygon class="st0" points="151.07,16.95 151.07,32.13 160.72,32.13 160.72,30.11 153.6,30.11 153.6,16.95 				"/>
			</g>
			<g>
				<polygon class="st0" points="93.63,52.83 104.53,52.83 104.53,49.1 93.63,49.1 93.63,41.24 106.35,41.24 106.35,37.51 
					88.98,37.51 88.98,65.36 106.48,65.36 106.48,61.65 93.63,61.65 				"/>
				<polygon class="st0" points="126.29,65.36 126.29,55.63 135.95,37.51 130.77,37.51 124.05,51.05 117.34,37.51 112.16,37.51 
					121.66,55.34 121.66,65.36 				"/>
				<polygon class="st0" points="148.02,52.83 158.92,52.83 158.92,49.1 148.02,49.1 148.02,41.24 160.74,41.24 160.74,37.51 
					143.37,37.51 143.37,65.36 160.87,65.36 160.87,61.65 148.02,61.65 				"/>
			</g>
			<g>
				<polygon class="st0" points="96.56,84.29 96.49,84.29 90.7,70.53 88.98,70.53 88.98,86.16 90.27,86.16 90.27,72.71 90.33,72.7 
					96.06,86.16 96.99,86.16 102.59,73.02 102.66,73.03 102.66,86.16 103.95,86.16 103.95,70.53 102.38,70.53 				"/>
				<polygon class="st0" points="111.43,78.59 118.44,78.59 118.44,77.5 111.43,77.5 111.43,71.62 119.48,71.62 119.48,70.53 
					110.14,70.53 110.14,86.16 119.54,86.16 119.54,85.08 111.43,85.08 				"/>
				<path class="st0" d="M129.23,70.53h-4.77v15.63h4.77c1.91,0,3.49-0.64,4.74-1.91c1.25-1.27,1.87-2.91,1.87-4.9v-2.01
					c0-2-0.62-3.63-1.87-4.91C132.72,71.16,131.14,70.53,129.23,70.53z M134.56,79.35c0,1.65-0.5,3.02-1.5,4.1
					c-1,1.08-2.28,1.62-3.82,1.62h-3.48V71.62h3.48c1.54,0,2.81,0.54,3.82,1.62c1.01,1.08,1.51,2.44,1.51,4.07V79.35z"/>
				<rect x="141.79" y="70.53" class="st0" width="1.29" height="15.63"/>
				<path class="st0" d="M153.96,70.53l-5.75,15.63h1.33l1.58-4.36h6.86l1.56,4.36h1.33l-5.7-15.63H153.96z M151.53,80.65l3.01-8.29
					h0.06l2.96,8.29H151.53z"/>
			</g>
		</g>
		<g>
			<polygon class="st0" points="22.5,16.73 14.46,16.73 14.46,24.77 14.46,43.19 14.46,51.23 14.46,85.94 22.5,85.94 22.5,51.23 
				52.98,51.23 52.98,43.19 22.5,43.19 22.5,24.77 66.25,24.77 66.25,16.73 			"/>
			<polygon class="st0" points="57.85,29.98 27.71,29.98 27.71,38.02 58.21,38.02 58.21,56.42 27.71,56.42 27.71,64.46 58.21,64.46 
				58.21,78.12 27.71,78.12 27.71,86.16 58.21,86.16 66.25,86.16 66.25,78.12 66.25,64.46 66.25,56.42 66.25,38.02 66.25,29.98 
				66.25,29.97 58.21,29.97 			"/>
		</g>
	</g>
</g>
</svg>
