<?xml version="1.0" encoding="utf-8"?>
<!-- Generator: Adobe Illustrator 25.2.0, SVG Export Plug-In . SVG Version: 6.00 Build 0)  -->
<svg version="1.1" id="Layer_1" xmlns="http://www.w3.org/2000/svg" xmlns:xlink="http://www.w3.org/1999/xlink" x="0px" y="0px"
	 viewBox="0 0 859.89 202.25" style="enable-background:new 0 0 859.89 202.25;" xml:space="preserve">
<style type="text/css">
	.st0{fill-rule:evenodd;clip-rule:evenodd;fill:#004B88;}
	.st1{fill:#004B88;}
</style>
<g>
	<path class="st0" d="M117.62,147.56l22.92-39.79l-15.5,0.01l7.69-13.36l36.41-0.01l-7.72,13.4l-13.16-0.04l-23.23,40.41
		c25.87,0,47.06-21.2,47.06-47.1c0-25.79-21.2-46.95-47.06-46.95c-1.88,0-3.79,0.11-5.55,0.34L96.38,94.41h28.66l-7.77,13.35H80.92
		l29.66-51.35c-18.86,6.12-32.56,23.88-32.56,44.65C78.02,124.45,95.2,143.96,117.62,147.56 M125.04,47.38
		c29.54,0,53.76,24.11,53.76,53.68c0,29.65-24.22,53.8-53.76,53.8c-29.62,0-53.72-24.15-53.72-53.8
		C71.32,71.49,95.43,47.38,125.04,47.38"/>
	<path class="st1" d="M788.57,93.06c-1.21-0.32-2.45-0.57-3.71-0.77c-1.27-0.2-2.53-0.3-3.79-0.31c-1.1,0-2.19,0.09-3.28,0.28
		c-1.1,0.19-2.12,0.49-3.11,0.89c-0.98,0.41-1.84,0.94-2.6,1.6c-0.76,0.66-1.36,1.46-1.8,2.39c-0.44,0.93-0.66,2.02-0.67,3.26
		c0.02,1.1,0.23,2.05,0.66,2.84c0.43,0.8,0.98,1.49,1.66,2.09c0.68,0.59,1.39,1.12,2.15,1.61c0.76,0.48,1.47,0.95,2.15,1.4
		c0.68,0.46,1.23,0.97,1.66,1.5c0.43,0.54,0.64,1.16,0.66,1.86c-0.01,0.54-0.15,0.99-0.41,1.37c-0.27,0.37-0.63,0.68-1.09,0.91
		c-0.45,0.22-0.96,0.39-1.52,0.5c-0.56,0.1-1.13,0.15-1.71,0.15c-0.88-0.01-1.71-0.1-2.46-0.29c-0.75-0.19-1.46-0.45-2.14-0.75
		c-0.67-0.31-1.33-0.64-1.98-1.01l-1.49,5.5c1.27,0.58,2.58,1,3.94,1.24c1.36,0.24,2.73,0.36,4.13,0.35c1.19,0,2.36-0.09,3.51-0.27
		c1.15-0.19,2.23-0.49,3.24-0.9c1.01-0.41,1.9-0.97,2.68-1.65c0.77-0.69,1.38-1.54,1.82-2.55c0.45-1.01,0.67-2.2,0.68-3.57
		c-0.02-1.07-0.23-2.02-0.66-2.84c-0.43-0.81-0.99-1.54-1.66-2.17c-0.68-0.63-1.39-1.19-2.15-1.7c-0.76-0.51-1.47-0.99-2.15-1.44
		c-0.68-0.45-1.23-0.92-1.66-1.39c-0.43-0.46-0.64-0.98-0.66-1.52c0.01-0.52,0.16-0.96,0.44-1.31c0.27-0.34,0.65-0.62,1.11-0.81
		c0.45-0.21,0.96-0.34,1.49-0.43c0.54-0.08,1.07-0.12,1.59-0.12c0.98,0.01,1.94,0.13,2.89,0.37c0.94,0.23,1.87,0.52,2.77,0.87
		L788.57,93.06z M746.42,103.24c0.44-1.23,0.96-2.31,1.58-3.24c0.62-0.92,1.41-1.65,2.35-2.18c0.94-0.52,2.12-0.79,3.53-0.8
		c1.44,0.01,2.53,0.39,3.26,1.15c0.74,0.76,1.11,1.85,1.11,3.27c0,0.31-0.01,0.61-0.03,0.9c-0.03,0.29-0.07,0.59-0.12,0.9H746.42z
		 M764.15,107.97c0.21-0.98,0.37-1.95,0.49-2.94c0.12-0.98,0.18-1.97,0.18-2.97c-0.01-2.25-0.46-4.11-1.36-5.6
		c-0.89-1.49-2.15-2.61-3.77-3.36c-1.62-0.75-3.52-1.11-5.71-1.11c-1.74,0.01-3.38,0.31-4.9,0.89c-1.52,0.58-2.91,1.39-4.15,2.42
		c-1.24,1.03-2.31,2.23-3.21,3.59c-0.9,1.36-1.58,2.83-2.06,4.39c-0.49,1.58-0.73,3.19-0.74,4.84c0.01,1.96,0.32,3.67,0.93,5.12
		c0.61,1.46,1.47,2.66,2.6,3.61c1.12,0.95,2.47,1.66,4.03,2.13c1.56,0.47,3.29,0.7,5.2,0.7c1.42-0.01,2.84-0.16,4.28-0.44
		c1.42-0.28,2.81-0.63,4.15-1.05l0.87-5.45c-1.29,0.6-2.6,1.06-3.97,1.4c-1.35,0.33-2.74,0.5-4.16,0.5
		c-1.58,0.01-2.91-0.21-4.01-0.65c-1.09-0.44-1.92-1.15-2.48-2.12c-0.57-0.99-0.86-2.29-0.86-3.91H764.15z M739.07,93.01
		c-0.93-0.29-2-0.53-3.18-0.73c-1.17-0.19-2.42-0.29-3.71-0.3c-2.38,0.01-4.53,0.43-6.45,1.24c-1.92,0.82-3.56,1.96-4.93,3.44
		c-1.37,1.47-2.42,3.2-3.14,5.17c-0.73,1.98-1.1,4.13-1.1,6.45c0.02,2.3,0.48,4.29,1.4,6c0.92,1.7,2.23,3.03,3.91,3.97
		c1.68,0.94,3.67,1.42,5.96,1.44c1.13,0.01,2.26-0.07,3.38-0.23c1.11-0.17,2.2-0.51,3.25-1l0.77-5.45
		c-0.61,0.29-1.23,0.54-1.88,0.74c-0.64,0.2-1.29,0.34-1.92,0.45c-0.63,0.1-1.24,0.15-1.81,0.15c-1.17-0.01-2.15-0.21-2.91-0.59
		c-0.76-0.38-1.36-0.91-1.79-1.56c-0.43-0.66-0.74-1.4-0.91-2.21c-0.17-0.81-0.26-1.65-0.25-2.53c0-1.26,0.19-2.49,0.57-3.68
		c0.38-1.2,0.93-2.28,1.66-3.25c0.74-0.97,1.63-1.74,2.7-2.31c1.06-0.57,2.28-0.87,3.66-0.88c0.96,0,1.87,0.11,2.73,0.34
		c0.86,0.22,1.63,0.56,2.3,0.99L739.07,93.01z M707.97,87.77h6.89l1.44-6.58h-6.89L707.97,87.77z M701.24,119.07h6.89l5.65-26.47
		h-6.89L701.24,119.07z M679.44,119.07h7.61l15.47-26.47h-7.3l-10.43,19.43h-0.1l-2.67-19.43h-7.04L679.44,119.07z M652.66,119.07
		h6.89l2.47-11.87c0.21-1.08,0.53-2.13,0.95-3.15c0.42-1.02,0.95-1.95,1.61-2.77c0.65-0.82,1.43-1.48,2.36-1.97
		c0.92-0.49,1.99-0.74,3.2-0.75c0.45,0,0.89,0.03,1.35,0.11c0.46,0.07,0.87,0.17,1.27,0.3l1.44-6.73c-0.41-0.1-0.85-0.17-1.29-0.21
		c-0.45-0.03-0.89-0.05-1.33-0.05c-0.8,0.01-1.6,0.16-2.39,0.47c-0.8,0.31-1.54,0.72-2.25,1.25c-0.71,0.52-1.34,1.12-1.88,1.79
		c-0.55,0.67-0.98,1.36-1.29,2.09h-0.1l0.93-4.99h-6.58c-0.21,1.23-0.41,2.42-0.62,3.55L652.66,119.07z M632.15,103.24
		c0.44-1.23,0.96-2.31,1.58-3.24c0.62-0.92,1.4-1.65,2.35-2.18c0.94-0.52,2.12-0.79,3.53-0.8c1.44,0.01,2.53,0.39,3.26,1.15
		c0.74,0.76,1.11,1.85,1.11,3.27c0,0.31-0.01,0.61-0.03,0.9c-0.03,0.29-0.07,0.59-0.12,0.9H632.15z M649.88,107.97
		c0.21-0.98,0.37-1.95,0.49-2.94c0.12-0.98,0.18-1.97,0.18-2.97c-0.01-2.25-0.46-4.11-1.36-5.6c-0.89-1.49-2.15-2.61-3.77-3.36
		c-1.62-0.75-3.52-1.11-5.72-1.11c-1.74,0.01-3.37,0.31-4.9,0.89c-1.52,0.58-2.91,1.39-4.15,2.42c-1.24,1.03-2.31,2.23-3.2,3.59
		c-0.9,1.36-1.59,2.83-2.07,4.39c-0.49,1.58-0.73,3.19-0.74,4.84c0.01,1.96,0.32,3.67,0.93,5.12c0.61,1.46,1.47,2.66,2.6,3.61
		c1.12,0.95,2.47,1.66,4.03,2.13c1.56,0.47,3.29,0.7,5.2,0.7c1.42-0.01,2.84-0.16,4.28-0.44c1.42-0.28,2.81-0.63,4.15-1.05
		l0.87-5.45c-1.28,0.6-2.6,1.06-3.97,1.4c-1.35,0.33-2.74,0.5-4.16,0.5c-1.58,0.01-2.91-0.21-4.01-0.65
		c-1.09-0.44-1.92-1.15-2.48-2.12c-0.57-0.99-0.86-2.29-0.86-3.91H649.88z M622.85,84.17c-1.47-0.58-3-0.99-4.57-1.24
		c-1.58-0.24-3.15-0.36-4.73-0.35c-1.39,0-2.73,0.13-4.04,0.4c-1.3,0.27-2.52,0.69-3.64,1.24c-1.13,0.55-2.12,1.26-2.96,2.12
		c-0.86,0.86-1.52,1.88-2,3.06c-0.48,1.17-0.72,2.52-0.73,4.03c0.01,1.35,0.24,2.53,0.68,3.5c0.44,0.98,1.03,1.82,1.75,2.52
		c0.73,0.7,1.53,1.33,2.39,1.86c0.87,0.53,1.74,1.04,2.6,1.51c0.87,0.48,1.66,0.97,2.39,1.48c0.73,0.51,1.31,1.11,1.75,1.77
		c0.44,0.67,0.67,1.46,0.68,2.37c-0.01,0.96-0.21,1.8-0.58,2.5c-0.38,0.7-0.9,1.29-1.54,1.75c-0.65,0.45-1.38,0.8-2.19,1.02
		c-0.81,0.22-1.64,0.33-2.52,0.33c-1.03-0.01-2.04-0.13-3.03-0.35c-0.99-0.23-1.97-0.53-2.93-0.91c-0.96-0.37-1.9-0.77-2.83-1.21
		l-1.85,6.12c1.63,0.6,3.31,1.08,5.04,1.45c1.73,0.36,3.46,0.55,5.19,0.56c1.59,0,3.1-0.13,4.56-0.4c1.46-0.27,2.8-0.69,4.04-1.28
		c1.23-0.58,2.31-1.34,3.23-2.28c0.93-0.93,1.64-2.06,2.15-3.39c0.51-1.32,0.77-2.86,0.78-4.62c-0.01-1.41-0.24-2.65-0.68-3.69
		c-0.44-1.04-1.02-1.95-1.75-2.71c-0.73-0.77-1.53-1.44-2.39-2.02c-0.87-0.58-1.74-1.12-2.6-1.62c-0.87-0.5-1.66-1-2.39-1.51
		c-0.73-0.5-1.31-1.07-1.75-1.68c-0.44-0.62-0.67-1.33-0.68-2.14c0.01-0.77,0.21-1.41,0.58-1.94c0.37-0.53,0.86-0.95,1.46-1.27
		c0.6-0.32,1.25-0.55,1.95-0.69c0.69-0.14,1.37-0.21,2.02-0.21c0.88,0,1.76,0.08,2.63,0.24c0.87,0.15,1.72,0.37,2.54,0.65
		c0.82,0.27,1.58,0.59,2.29,0.96L622.85,84.17z M554.94,92.6l4.68,27.76c-0.8,1.24-1.53,2.21-2.18,2.9c-0.65,0.7-1.29,1.19-1.9,1.47
		c-0.62,0.28-1.26,0.41-1.94,0.4c-0.69-0.01-1.26-0.07-1.73-0.19c-0.47-0.13-0.9-0.27-1.3-0.43l-1.54,5.24
		c0.85,0.23,1.7,0.41,2.55,0.53c0.85,0.13,1.71,0.19,2.59,0.19c1.45-0.01,2.72-0.23,3.8-0.65c1.09-0.42,2.04-0.99,2.85-1.7
		c0.81-0.71,1.53-1.51,2.16-2.38c0.62-0.87,1.2-1.76,1.72-2.67l17.94-30.48h-7.56l-10.54,19.69h-0.1l-2.47-19.69H554.94z
		 M541.63,102.88c0,1.02-0.09,2.04-0.28,3.06c-0.19,1.03-0.47,2-0.87,2.94c-0.39,0.93-0.89,1.76-1.51,2.49
		c-0.61,0.73-1.34,1.3-2.18,1.72c-0.85,0.42-1.82,0.63-2.92,0.64c-1.03-0.02-1.86-0.29-2.5-0.82c-0.64-0.54-1.12-1.25-1.42-2.14
		c-0.3-0.89-0.44-1.87-0.44-2.95c0-0.8,0.08-1.67,0.27-2.61c0.18-0.93,0.44-1.87,0.81-2.79c0.37-0.92,0.83-1.76,1.4-2.53
		c0.56-0.77,1.23-1.38,2.01-1.84c0.77-0.46,1.66-0.7,2.66-0.71c1.06,0.01,1.97,0.27,2.71,0.75c0.75,0.49,1.31,1.16,1.7,1.99
		C541.43,100.9,541.63,101.84,541.63,102.88z M520.4,128.68c1.7,0.63,3.44,1.1,5.22,1.38c1.78,0.28,3.56,0.43,5.37,0.42
		c2.41-0.01,4.47-0.34,6.2-1.02c1.72-0.67,3.17-1.64,4.34-2.89c1.16-1.25,2.12-2.76,2.84-4.51c0.74-1.76,1.31-3.71,1.72-5.88
		l4.21-19.89c0.18-0.85,0.34-1.59,0.5-2.22c0.15-0.62,0.27-1.12,0.38-1.48h-6.63l-0.77,3.86c-0.56-0.93-1.23-1.73-2.05-2.39
		c-0.81-0.67-1.72-1.18-2.74-1.54c-1.02-0.35-2.12-0.54-3.28-0.54c-1.72,0.01-3.28,0.31-4.69,0.89c-1.41,0.58-2.66,1.39-3.74,2.42
		c-1.09,1.04-2,2.22-2.73,3.56c-0.75,1.34-1.3,2.78-1.68,4.32c-0.39,1.53-0.57,3.1-0.57,4.7c0,1.46,0.18,2.86,0.53,4.2
		c0.36,1.34,0.92,2.54,1.66,3.58c0.75,1.05,1.7,1.88,2.86,2.49c1.16,0.61,2.54,0.92,4.15,0.93c1.28,0,2.47-0.21,3.61-0.6
		c1.13-0.39,2.15-0.97,3.05-1.71c0.9-0.75,1.64-1.66,2.24-2.72h0.1c-0.32,1.21-0.64,2.37-0.98,3.46c-0.33,1.11-0.71,2.12-1.16,3.04
		c-0.45,0.93-1.01,1.74-1.68,2.42c-0.68,0.68-1.52,1.22-2.53,1.6c-1,0.38-2.24,0.57-3.68,0.57c-0.99,0-1.95-0.09-2.88-0.28
		c-0.92-0.18-1.84-0.43-2.74-0.74c-0.9-0.31-1.8-0.65-2.71-1.04L520.4,128.68z M506.52,91.98c-2.24,0.01-4.3,0.41-6.2,1.2
		c-1.89,0.79-3.56,1.89-4.97,3.3c-1.42,1.41-2.52,3.07-3.31,4.96c-0.79,1.88-1.19,3.95-1.2,6.17c0.01,2.49,0.5,4.64,1.45,6.44
		c0.96,1.8,2.34,3.19,4.13,4.16c1.79,0.97,3.94,1.46,6.45,1.47c2.35-0.01,4.49-0.41,6.42-1.21c1.93-0.79,3.59-1.91,4.99-3.35
		c1.4-1.44,2.47-3.14,3.23-5.09c0.75-1.96,1.14-4.1,1.15-6.44c-0.01-1.82-0.3-3.46-0.89-4.89c-0.58-1.44-1.41-2.66-2.49-3.66
		c-1.08-0.99-2.36-1.76-3.84-2.28C509.95,92.25,508.31,91.98,506.52,91.98z M503.44,114.34c-1.31-0.01-2.36-0.29-3.16-0.84
		c-0.79-0.54-1.36-1.28-1.71-2.21c-0.36-0.93-0.53-2-0.52-3.17c0-0.97,0.11-1.95,0.33-2.96c0.22-1.01,0.55-1.98,0.98-2.91
		c0.44-0.93,0.98-1.77,1.63-2.5c0.66-0.75,1.42-1.33,2.3-1.76c0.86-0.43,1.85-0.65,2.94-0.66c1.01,0.01,1.86,0.17,2.54,0.51
		c0.68,0.33,1.22,0.78,1.61,1.36c0.39,0.58,0.68,1.25,0.85,2.01c0.17,0.76,0.26,1.58,0.25,2.44c0,0.92-0.1,1.87-0.32,2.85
		c-0.21,0.98-0.54,1.94-0.97,2.86c-0.43,0.93-0.96,1.77-1.6,2.52c-0.64,0.75-1.39,1.34-2.25,1.78
		C505.47,114.1,504.51,114.33,503.44,114.34z M475.53,119.07h6.89l8.17-38.55h-6.89L475.53,119.07z M460.83,91.98
		c-2.24,0.01-4.3,0.41-6.2,1.2c-1.89,0.79-3.56,1.89-4.97,3.3c-1.42,1.41-2.52,3.07-3.31,4.96c-0.79,1.88-1.19,3.95-1.2,6.17
		c0.01,2.49,0.5,4.64,1.45,6.44c0.96,1.8,2.34,3.19,4.13,4.16c1.79,0.97,3.94,1.46,6.45,1.47c2.35-0.01,4.49-0.41,6.42-1.21
		c1.93-0.79,3.59-1.91,4.99-3.35c1.4-1.44,2.47-3.14,3.23-5.09c0.75-1.96,1.14-4.1,1.15-6.44c-0.01-1.82-0.3-3.46-0.89-4.89
		c-0.58-1.44-1.41-2.66-2.49-3.66c-1.08-0.99-2.36-1.76-3.84-2.28C464.25,92.25,462.62,91.98,460.83,91.98z M457.74,114.34
		c-1.31-0.01-2.36-0.29-3.16-0.84c-0.79-0.54-1.36-1.28-1.71-2.21c-0.36-0.93-0.53-2-0.52-3.17c0-0.97,0.11-1.95,0.33-2.96
		c0.22-1.01,0.55-1.98,0.99-2.91c0.44-0.93,0.98-1.77,1.63-2.5c0.66-0.75,1.42-1.33,2.3-1.76c0.87-0.43,1.85-0.65,2.94-0.66
		c1.01,0.01,1.86,0.17,2.54,0.51c0.68,0.33,1.22,0.78,1.61,1.36c0.39,0.58,0.68,1.25,0.85,2.01c0.17,0.76,0.26,1.58,0.25,2.44
		c0,0.92-0.1,1.87-0.32,2.85c-0.21,0.98-0.54,1.94-0.97,2.86c-0.43,0.93-0.96,1.77-1.6,2.52c-0.64,0.75-1.39,1.34-2.25,1.78
		C459.77,114.1,458.81,114.33,457.74,114.34z M412.71,119.07h6.89l2.83-13.31c0.21-1,0.5-2,0.86-2.99c0.35-0.98,0.81-1.89,1.38-2.71
		c0.57-0.82,1.28-1.48,2.12-1.97c0.85-0.5,1.86-0.75,3.05-0.76c0.75,0,1.4,0.16,1.95,0.47c0.57,0.3,1,0.74,1.32,1.29
		c0.32,0.56,0.48,1.2,0.48,1.94c-0.01,0.98-0.09,1.92-0.25,2.83c-0.15,0.92-0.33,1.82-0.52,2.72l-2.57,12.49h6.89l2.78-12.85
		c0.2-0.83,0.38-1.75,0.57-2.74c0.19-0.99,0.28-2,0.3-3.02c-0.01-1.76-0.37-3.26-1.09-4.53c-0.71-1.26-1.71-2.24-3-2.91
		c-1.29-0.69-2.81-1.03-4.55-1.04c-0.99,0.01-1.94,0.15-2.84,0.44c-0.91,0.28-1.75,0.67-2.53,1.15c-0.79,0.48-1.5,1.01-2.13,1.6
		h-0.1L425,92.6h-6.73c-0.05,0.42-0.14,0.96-0.26,1.61c-0.12,0.66-0.26,1.39-0.41,2.19L412.71,119.07z M381.31,119.07h6.89
		l2.83-13.31c0.21-1,0.5-2,0.86-2.99c0.35-0.98,0.81-1.89,1.38-2.71c0.57-0.82,1.28-1.48,2.12-1.97c0.85-0.5,1.86-0.75,3.05-0.76
		c0.75,0,1.4,0.16,1.95,0.47c0.57,0.3,1,0.74,1.32,1.29c0.32,0.56,0.48,1.2,0.48,1.94c-0.01,0.98-0.09,1.92-0.25,2.83
		c-0.15,0.92-0.33,1.82-0.52,2.72l-2.57,12.49h6.89l2.78-12.85c0.2-0.83,0.38-1.75,0.57-2.74c0.19-0.99,0.28-2,0.3-3.02
		c-0.01-1.76-0.37-3.26-1.09-4.53c-0.71-1.26-1.71-2.24-3-2.91c-1.29-0.69-2.81-1.03-4.55-1.04c-0.99,0.01-1.94,0.15-2.84,0.44
		c-0.91,0.28-1.75,0.67-2.53,1.15c-0.79,0.48-1.5,1.01-2.13,1.6h-0.1l3.29-14.65h-6.89L381.31,119.07z M382.03,93.01
		c-0.93-0.29-2-0.53-3.18-0.73c-1.17-0.19-2.42-0.29-3.71-0.3c-2.38,0.01-4.53,0.43-6.45,1.24c-1.92,0.82-3.56,1.96-4.93,3.44
		c-1.37,1.47-2.42,3.2-3.14,5.17c-0.73,1.98-1.1,4.13-1.1,6.45c0.02,2.3,0.48,4.29,1.4,6c0.92,1.7,2.23,3.03,3.91,3.97
		c1.68,0.94,3.67,1.42,5.96,1.44c1.13,0.01,2.26-0.07,3.38-0.23c1.11-0.17,2.2-0.51,3.26-1l0.77-5.45
		c-0.61,0.29-1.23,0.54-1.88,0.74c-0.64,0.2-1.29,0.34-1.92,0.45c-0.63,0.1-1.24,0.15-1.81,0.15c-1.17-0.01-2.15-0.21-2.91-0.59
		c-0.76-0.38-1.36-0.91-1.79-1.56c-0.43-0.66-0.74-1.4-0.91-2.21c-0.17-0.81-0.26-1.65-0.25-2.53c0-1.26,0.19-2.49,0.56-3.68
		c0.38-1.2,0.93-2.28,1.66-3.25c0.74-0.97,1.63-1.74,2.7-2.31c1.06-0.57,2.28-0.87,3.66-0.88c0.96,0,1.87,0.11,2.73,0.34
		c0.86,0.22,1.63,0.56,2.3,0.99L382.03,93.01z M337.97,103.24c0.44-1.23,0.96-2.31,1.58-3.24c0.62-0.92,1.4-1.65,2.35-2.18
		c0.94-0.52,2.12-0.79,3.53-0.8c1.44,0.01,2.53,0.39,3.26,1.15c0.74,0.76,1.1,1.85,1.1,3.27c0,0.31-0.01,0.61-0.03,0.9
		c-0.03,0.29-0.07,0.59-0.12,0.9H337.97z M355.71,107.97c0.21-0.98,0.37-1.95,0.49-2.94c0.12-0.98,0.18-1.97,0.18-2.97
		c-0.01-2.25-0.46-4.11-1.36-5.6c-0.89-1.49-2.15-2.61-3.77-3.36c-1.62-0.75-3.52-1.11-5.71-1.11c-1.74,0.01-3.38,0.31-4.9,0.89
		c-1.52,0.58-2.91,1.39-4.15,2.42c-1.24,1.03-2.31,2.23-3.2,3.59c-0.9,1.36-1.58,2.83-2.07,4.39c-0.49,1.58-0.73,3.19-0.74,4.84
		c0.01,1.96,0.32,3.67,0.93,5.12c0.61,1.46,1.47,2.66,2.6,3.61c1.12,0.95,2.47,1.66,4.03,2.13c1.56,0.47,3.29,0.7,5.2,0.7
		c1.42-0.01,2.84-0.16,4.28-0.44c1.42-0.28,2.81-0.63,4.15-1.05l0.87-5.45c-1.28,0.6-2.6,1.06-3.97,1.4
		c-1.35,0.33-2.74,0.5-4.16,0.5c-1.58,0.01-2.91-0.21-4.01-0.65c-1.09-0.44-1.92-1.15-2.48-2.12c-0.57-0.99-0.86-2.29-0.86-3.91
		H355.71z M308.37,88.84h10.13l-6.53,30.22h7.5L326,88.84h10.13l1.18-5.65h-27.7L308.37,88.84z M264.47,88.84h10.13l-6.53,30.22h7.5
		l6.53-30.22h10.13l1.18-5.65H265.7L264.47,88.84z M252.34,90.75c-0.01,0.86-0.21,1.6-0.6,2.24c-0.39,0.63-0.9,1.17-1.52,1.61
		c-0.63,0.45-1.3,0.81-2.01,1.11c-0.72,0.29-1.42,0.52-2.08,0.7c-0.32-0.44-0.62-0.9-0.9-1.4c-0.29-0.5-0.53-1.02-0.71-1.55
		c-0.19-0.53-0.28-1.05-0.29-1.57c0.01-0.91,0.21-1.69,0.6-2.32c0.39-0.63,0.93-1.11,1.61-1.45c0.68-0.33,1.45-0.5,2.31-0.5
		c0.6-0.01,1.17,0.09,1.71,0.27c0.54,0.19,0.99,0.51,1.34,0.98C252.15,89.32,252.33,89.95,252.34,90.75z M249.51,112.54
		c-0.54,0.39-1.14,0.73-1.8,0.99c-0.67,0.27-1.36,0.46-2.09,0.6c-0.73,0.14-1.45,0.21-2.18,0.21c-0.86,0-1.66-0.09-2.41-0.28
		c-0.75-0.19-1.42-0.5-2-0.91c-0.58-0.41-1.04-0.94-1.36-1.61c-0.34-0.66-0.5-1.46-0.51-2.39c0.01-0.91,0.18-1.7,0.51-2.36
		c0.33-0.66,0.78-1.23,1.35-1.71c0.57-0.48,1.2-0.9,1.9-1.25c0.71-0.35,1.44-0.67,2.19-0.94L249.51,112.54z M253.83,119.07h7.71
		l-4.16-6.07c1.18-1.21,2.19-2.54,3.04-3.98c0.84-1.45,1.53-2.96,2.04-4.56c0.52-1.6,0.88-3.22,1.09-4.87h-6.27
		c-0.03,1.04-0.2,2.06-0.47,3.06c-0.27,0.99-0.64,1.96-1.1,2.9c-0.45,0.92-0.98,1.82-1.57,2.68l-5.19-7.45
		c1.21-0.43,2.37-0.93,3.48-1.5c1.11-0.57,2.11-1.25,2.99-2.03c0.88-0.78,1.58-1.7,2.1-2.77c0.51-1.06,0.78-2.3,0.79-3.73
		c-0.01-1.13-0.21-2.14-0.62-3.02c-0.4-0.88-0.95-1.64-1.64-2.3c-0.69-0.65-1.46-1.18-2.32-1.6c-0.86-0.43-1.75-0.74-2.66-0.94
		c-0.92-0.21-1.81-0.31-2.67-0.31c-1.37,0-2.7,0.18-3.97,0.56c-1.28,0.37-2.42,0.93-3.44,1.68c-1.02,0.75-1.82,1.7-2.42,2.84
		c-0.59,1.14-0.89,2.49-0.91,4.03c0,1.05,0.11,1.95,0.34,2.72c0.21,0.75,0.51,1.45,0.89,2.07c0.38,0.63,0.81,1.25,1.29,1.89
		c-1.32,0.39-2.57,0.93-3.75,1.58s-2.23,1.44-3.14,2.36c-0.92,0.92-1.64,1.98-2.17,3.18c-0.52,1.2-0.8,2.54-0.81,4.04
		c0.01,1.45,0.24,2.72,0.69,3.84c0.45,1.11,1.08,2.07,1.88,2.88c0.8,0.8,1.73,1.46,2.78,1.96c1.05,0.51,2.19,0.89,3.4,1.14
		c1.21,0.24,2.45,0.36,3.73,0.36c0.84,0,1.71-0.06,2.61-0.19c0.9-0.12,1.78-0.3,2.66-0.53c0.87-0.23,1.7-0.51,2.47-0.84
		c0.77-0.33,1.45-0.7,2.03-1.11L253.83,119.07z M205.72,119.07h21.23l1.23-5.66h-14.08l6.43-30.22h-7.2L205.72,119.07z"/>
</g>
</svg>
